<svg width="17" height="18" viewBox="0 0 17 18" fill="none" xmlns="http://www.w3.org/2000/svg">
<path d="M14.7194 8.38528C15.0572 8.6161 15.3584 8.87787 15.623 9.17061C15.8876 9.46335 16.1156 9.78424 16.307 10.1333C16.4984 10.4823 16.6391 10.851 16.7292 11.2395C16.8193 11.6279 16.8699 12.0248 16.8812 12.4301C16.8812 13.1001 16.7545 13.7306 16.5012 14.3217C16.2479 14.9128 15.8988 15.4279 15.4541 15.867C15.0094 16.3061 14.4943 16.6523 13.9088 16.9057C13.3233 17.159 12.6928 17.2885 12.0172 17.2941C11.5049 17.2941 11.0095 17.2181 10.531 17.0661C10.0525 16.9141 9.6134 16.6946 9.2137 16.4075C8.81399 16.1203 8.45933 15.7769 8.1497 15.3772C7.84007 14.9775 7.60082 14.5356 7.43193 14.0515H0.667969V1.08088H2.82973V0H3.91062V1.08088H11.4768V0H12.5577V1.08088H14.7194V8.38528ZM1.74885 2.16176V4.32353H13.6386V2.16176H12.5577V3.24265H11.4768V2.16176H3.91062V3.24265H2.82973V2.16176H1.74885ZM7.1786 12.9706C7.16171 12.7961 7.15326 12.6159 7.15326 12.4301C7.15326 11.946 7.22082 11.4759 7.35593 11.0199C7.49104 10.5639 7.69652 10.1333 7.97237 9.72794H7.15326V8.64706H8.23415V9.37328C8.46496 9.08617 8.72111 8.83284 9.00259 8.61328C9.28407 8.39373 9.58806 8.20514 9.91458 8.04751C10.2411 7.88988 10.5817 7.77166 10.9364 7.69284C11.291 7.61403 11.6513 7.57181 12.0172 7.56618C12.5802 7.56618 13.1206 7.65906 13.6386 7.84484V5.40441H1.74885V12.9706H7.1786ZM12.0172 16.2132C12.5408 16.2132 13.0306 16.1147 13.4866 15.9177C13.9426 15.7206 14.3423 15.4504 14.6857 15.107C15.0291 14.7636 15.2993 14.3639 15.4963 13.9079C15.6934 13.4519 15.7947 12.9593 15.8003 12.4301C15.8003 11.9066 15.7018 11.4168 15.5048 10.9608C15.3077 10.5048 15.0375 10.1051 14.6941 9.76172C14.3507 9.41831 13.951 9.14809 13.495 8.95106C13.039 8.75402 12.5464 8.65269 12.0172 8.64706C11.4937 8.64706 11.0039 8.74558 10.5479 8.94261C10.0919 9.13965 9.69221 9.40987 9.34881 9.75327C9.0054 10.0967 8.73518 10.4964 8.53814 10.9524C8.34111 11.4084 8.23978 11.901 8.23415 12.4301C8.23415 12.9537 8.33266 13.4435 8.5297 13.8995C8.72674 14.3555 8.99696 14.7552 9.34036 15.0986C9.68377 15.442 10.0835 15.7122 10.5395 15.9092C10.9955 16.1063 11.4881 16.2076 12.0172 16.2132ZM12.5577 11.8897H14.179V12.9706H11.4768V9.72794H12.5577V11.8897ZM2.82973 8.64706H3.91062V9.72794H2.82973V8.64706ZM4.9915 8.64706H6.07238V9.72794H4.9915V8.64706ZM4.9915 6.48529H6.07238V7.56618H4.9915V6.48529ZM2.82973 10.8088H3.91062V11.8897H2.82973V10.8088ZM4.9915 10.8088H6.07238V11.8897H4.9915V10.8088ZM8.23415 7.56618H7.15326V6.48529H8.23415V7.56618ZM10.3959 7.56618H9.31503V6.48529H10.3959V7.56618ZM12.5577 7.56618H11.4768V6.48529H12.5577V7.56618Z" fill="#FFC700"/>
</svg>
