<svg width="12" height="13" viewBox="0 0 12 13" fill="none" xmlns="http://www.w3.org/2000/svg">
<path d="M6.69099 9.142V7.5C6.69099 7.36739 6.63831 7.24021 6.54454 7.14645C6.45077 7.05268 6.3236 7 6.19099 7H5.19099C5.05838 7 4.9312 7.05268 4.83743 7.14645C4.74367 7.24021 4.69099 7.36739 4.69099 7.5V9.141C3.93106 9.33535 3.24527 9.74937 2.71934 10.3313C2.19341 10.9133 1.85068 11.6373 1.73399 12.413C1.72258 12.4853 1.72697 12.5592 1.74684 12.6297C1.76671 12.7001 1.8016 12.7654 1.84911 12.8211C1.89662 12.8768 1.95562 12.9215 2.02206 12.9522C2.08849 12.9829 2.16079 12.9989 2.23399 12.999H9.15599C9.22918 12.9989 9.30148 12.9829 9.36792 12.9522C9.43436 12.9215 9.49336 12.8768 9.54087 12.8211C9.58837 12.7654 9.62326 12.7001 9.64314 12.6297C9.66301 12.5592 9.66739 12.4853 9.65599 12.413C9.53853 11.6365 9.19454 10.9119 8.66711 10.3301C8.13968 9.74819 7.45226 9.33491 6.69099 9.142ZM11.33 5.279L8.82999 0.279C8.78884 0.195493 8.7252 0.125131 8.64622 0.0758387C8.56725 0.0265463 8.47608 0.000280894 8.38299 0H2.99899C2.90638 0.000188421 2.81564 0.0260929 2.73689 0.0748258C2.65814 0.123559 2.59448 0.193205 2.55299 0.276L0.0529879 5.276C0.0149013 5.352 -0.0031783 5.43646 0.000457582 5.52139C0.00409347 5.60633 0.0293248 5.68893 0.0737672 5.7614C0.11821 5.83387 0.180396 5.89381 0.254449 5.93556C0.328503 5.97731 0.411978 5.99949 0.496988 6H8.69099V7.5C8.69099 7.63261 8.74367 7.75979 8.83743 7.85355C8.9312 7.94732 9.05838 8 9.19099 8C9.3236 8 9.45077 7.94732 9.54454 7.85355C9.63831 7.75979 9.69099 7.63261 9.69099 7.5V6H10.885C10.9697 5.99941 11.0528 5.97731 11.1266 5.93579C11.2004 5.89427 11.2625 5.83469 11.307 5.76262C11.3514 5.69056 11.3769 5.60837 11.3809 5.52378C11.3849 5.43919 11.3674 5.35496 11.33 5.279Z" fill="white"/>
</svg>
