<svg width="11" height="15" viewBox="0 0 11 15" fill="none" xmlns="http://www.w3.org/2000/svg">
<path d="M7.84375 2.8125V0.9375C7.84375 0.81318 7.79436 0.693951 7.70646 0.606044C7.61855 0.518136 7.49932 0.46875 7.375 0.46875H3.625C3.50068 0.46875 3.38145 0.518136 3.29354 0.606044C3.20564 0.693951 3.15625 0.81318 3.15625 0.9375V2.8125C2.53486 2.8132 1.93913 3.06035 1.49974 3.49974C1.06035 3.93913 0.813198 4.53486 0.8125 5.15625V9.84375C0.813198 10.4651 1.06035 11.0609 1.49974 11.5003C1.93913 11.9396 2.53486 12.1868 3.15625 12.1875V14.0625C3.15625 14.1868 3.20564 14.306 3.29354 14.394C3.38145 14.4819 3.50068 14.5312 3.625 14.5312H7.375C7.49932 14.5312 7.61855 14.4819 7.70646 14.394C7.79436 14.306 7.84375 14.1868 7.84375 14.0625V12.1875C8.46514 12.1868 9.06087 11.9396 9.50026 11.5003C9.93965 11.0609 10.1868 10.4651 10.1875 9.84375V5.15625C10.1868 4.53486 9.93965 3.93913 9.50026 3.49974C9.06087 3.06035 8.46514 2.8132 7.84375 2.8125ZM9.48438 9.375C9.48376 9.93425 9.26132 10.4704 8.86587 10.8659C8.47042 11.2613 7.93425 11.4838 7.375 11.4844H3.625C3.06575 11.4838 2.52958 11.2613 2.13413 10.8659C1.73868 10.4704 1.51625 9.93425 1.51562 9.375V5.625C1.51625 5.06575 1.73868 4.52958 2.13413 4.13413C2.52958 3.73868 3.06575 3.51625 3.625 3.51562H7.375C7.93425 3.51625 8.47042 3.73868 8.86587 4.13413C9.26132 4.52958 9.48376 5.06575 9.48438 5.625V9.375Z" fill="white"/>
</svg>
