<svg width="15" height="11" viewBox="0 0 15 11" fill="none" xmlns="http://www.w3.org/2000/svg">
<path d="M13.6625 5.8125C13.2106 5.2803 12.5698 4.94422 11.875 4.875C11.875 3.65625 11.45 2.625 10.6 1.775C9.75 0.925 8.71875 0.5 7.5 0.5C6.5125 0.5 5.625 0.79375 4.84375 1.39375C4.0625 1.99375 3.54375 2.7625 3.28125 3.71875C2.5 3.89375 1.85 4.3 1.35625 4.9375C0.8625 5.575 0.625 6.3 0.625 7.1125C0.625 8.05625 0.9625 8.8625 1.63125 9.51875C2.30625 10.1875 3.125 10.5 4.0625 10.5H11.5625C12.3438 10.5 13.0063 10.225 13.5563 9.68125C14.1 9.13125 14.375 8.46875 14.375 7.6875C14.375 6.96875 14.1375 6.34375 13.6625 5.8125ZM5.90625 3.64375C6.39375 3.64375 6.79375 4.04375 6.79375 4.53125C6.79375 5.01875 6.39375 5.41875 5.90625 5.41875C5.41875 5.41875 5.01875 5.01875 5.01875 4.53125C5.01875 4.04375 5.41875 3.64375 5.90625 3.64375ZM9.09375 8.60625C8.60625 8.60625 8.20625 8.20625 8.20625 7.71875C8.20625 7.23125 8.60625 6.83125 9.09375 6.83125C9.58125 6.83125 9.98125 7.23125 9.98125 7.71875C9.98125 8.20625 9.58125 8.60625 9.09375 8.60625ZM5.75 8.625L5 7.875L9.25 3.625L10 4.375L5.75 8.625Z" fill="white"/>
</svg>
