<svg width="15" height="15" viewBox="0 0 15 15" fill="none" xmlns="http://www.w3.org/2000/svg">
<path d="M13.6505 7.91203C13.5208 7.78158 13.3666 7.67803 13.1968 7.60733C13.027 7.53662 12.8449 7.50014 12.6609 7.5H12.6562C12.4715 7.49945 12.2885 7.53558 12.1178 7.60631C11.9472 7.67704 11.7922 7.78096 11.662 7.91203L9.36469 10.2094C9.33937 9.8561 9.18143 9.52547 8.92253 9.28378C8.66363 9.0421 8.32292 8.90724 7.96875 8.90625H4.6875C4.06613 8.90699 3.47042 9.15416 3.03104 9.59354C2.59166 10.0329 2.34449 10.6286 2.34375 11.25V11.5627L0.9375 13.4358L1.6875 13.9983L3.28125 11.8748V11.25C3.28162 10.8772 3.4299 10.5197 3.69354 10.256C3.95718 9.9924 4.31465 9.84412 4.6875 9.84375H7.96875C8.09307 9.84375 8.2123 9.89314 8.30021 9.98104C8.38811 10.069 8.4375 10.1882 8.4375 10.3125C8.4375 10.4368 8.38811 10.556 8.30021 10.644C8.2123 10.7319 8.09307 10.7812 7.96875 10.7812H6.09375V11.7188H8.40422C8.65053 11.7194 8.89453 11.6712 9.12208 11.5769C9.34963 11.4826 9.55621 11.3441 9.72984 11.1694L12.3248 8.57484C12.3683 8.53117 12.4199 8.49654 12.4768 8.47296C12.5337 8.44939 12.5947 8.43733 12.6562 8.4375H12.6577C12.7502 8.4378 12.8406 8.4655 12.9175 8.51711C12.9944 8.56873 13.0542 8.64194 13.0895 8.72753C13.1248 8.81311 13.134 8.90723 13.1158 8.99802C13.0977 9.0888 13.0531 9.17219 12.9877 9.23766L9.51234 12.713C9.38204 12.844 9.22703 12.9479 9.05629 13.0187C8.88555 13.0894 8.70247 13.1255 8.51766 13.125H5.15625V14.0625H8.51766C8.82562 14.0634 9.1307 14.0031 9.41522 13.8852C9.69974 13.7674 9.95804 13.5942 10.1752 13.3758L13.6505 9.90047C13.7811 9.76992 13.8847 9.61493 13.9553 9.44434C14.026 9.27375 14.0624 9.0909 14.0624 8.90625C14.0624 8.7216 14.026 8.53875 13.9553 8.36816C13.8847 8.19757 13.7811 8.04258 13.6505 7.91203ZM10.1184 4.02469L8.4375 5.625V0.9375H7.5V5.625L5.81906 4.02469L5.15625 4.6875L7.96875 7.5L10.7812 4.6875L10.1184 4.02469Z" fill="white"/>
</svg>
