<svg width="14" height="14" viewBox="0 0 14 14" fill="none" xmlns="http://www.w3.org/2000/svg">
<path d="M8.53125 10.7188C8.65625 10.7188 8.76562 10.6719 8.85938 10.5781C8.95312 10.4844 9 10.375 9 10.25C9 10.125 8.95312 10.0156 8.85938 9.92188C8.76562 9.82812 8.65625 9.78125 8.53125 9.78125C8.40625 9.78125 8.29688 9.82812 8.20312 9.92188C8.10938 10.0156 8.0625 10.125 8.0625 10.25C8.0625 10.375 8.10938 10.4844 8.20312 10.5781C8.29688 10.6719 8.40625 10.7188 8.53125 10.7188ZM10.25 10.7188C10.375 10.7188 10.4844 10.6719 10.5781 10.5781C10.6719 10.4844 10.7188 10.375 10.7188 10.25C10.7188 10.125 10.6719 10.0156 10.5781 9.92188C10.4844 9.82812 10.375 9.78125 10.25 9.78125C10.125 9.78125 10.0156 9.82812 9.92188 9.92188C9.82812 10.0156 9.78125 10.125 9.78125 10.25C9.78125 10.375 9.82812 10.4844 9.92188 10.5781C10.0156 10.6719 10.125 10.7188 10.25 10.7188ZM11.9688 10.7188C12.0938 10.7188 12.2031 10.6719 12.2969 10.5781C12.3906 10.4844 12.4375 10.375 12.4375 10.25C12.4375 10.125 12.3906 10.0156 12.2969 9.92188C12.2031 9.82812 12.0938 9.78125 11.9688 9.78125C11.8438 9.78125 11.7344 9.82812 11.6406 9.92188C11.5469 10.0156 11.5 10.125 11.5 10.25C11.5 10.375 11.5469 10.4844 11.6406 10.5781C11.7344 10.6719 11.8438 10.7188 11.9688 10.7188ZM10.25 13.375C9.38542 13.375 8.64854 13.0704 8.03938 12.4613C7.42979 11.8517 7.125 11.1146 7.125 10.25C7.125 9.38542 7.42979 8.64833 8.03938 8.03875C8.64854 7.42958 9.38542 7.125 10.25 7.125C11.1146 7.125 11.8517 7.42958 12.4613 8.03875C13.0704 8.64833 13.375 9.38542 13.375 10.25C13.375 11.1146 13.0704 11.8517 12.4613 12.4613C11.8517 13.0704 11.1146 13.375 10.25 13.375ZM3.375 4.625H9.625V3.375H3.375V4.625ZM6.29688 12.125H2.125C1.78125 12.125 1.48687 12.0027 1.24187 11.7581C0.997292 11.5131 0.875 11.2188 0.875 10.875V2.125C0.875 1.78125 0.997292 1.48687 1.24187 1.24187C1.48687 0.997292 1.78125 0.875 2.125 0.875H10.875C11.2188 0.875 11.5131 0.997292 11.7581 1.24187C12.0027 1.48687 12.125 1.78125 12.125 2.125V6.3125C11.8229 6.16667 11.5183 6.05729 11.2113 5.98438C10.9038 5.91146 10.5833 5.875 10.25 5.875C10.1354 5.875 10.0288 5.8775 9.93 5.8825C9.83083 5.88792 9.72917 5.90104 9.625 5.92188V5.875H3.375V7.125H7.20312C7.01562 7.30208 6.84625 7.49479 6.695 7.70312C6.54417 7.91146 6.41146 8.13542 6.29688 8.375H3.375V9.625H5.92188C5.90104 9.72917 5.88792 9.83083 5.8825 9.93C5.8775 10.0288 5.875 10.1354 5.875 10.25C5.875 10.5938 5.90625 10.9142 5.96875 11.2113C6.03125 11.5079 6.14062 11.8125 6.29688 12.125Z" fill="white"/>
</svg>
