<svg width="8" height="13" viewBox="0 0 8 13" fill="none" xmlns="http://www.w3.org/2000/svg">
<path d="M4.37495 5.8125C2.9562 5.44375 2.49995 5.0625 2.49995 4.46875C2.49995 3.7875 3.1312 3.3125 4.18745 3.3125C5.29995 3.3125 5.71245 3.84375 5.74995 4.625H7.1312C7.08745 3.55 6.4312 2.5625 5.12495 2.24375V0.875H3.24995V2.225C2.03745 2.4875 1.06245 3.275 1.06245 4.48125C1.06245 5.925 2.2562 6.64375 3.99995 7.0625C5.56245 7.4375 5.87495 7.9875 5.87495 8.56875C5.87495 9 5.5687 9.6875 4.18745 9.6875C2.89995 9.6875 2.3937 9.1125 2.32495 8.375H0.949951C1.02495 9.74375 2.04995 10.5125 3.24995 10.7688V12.125H5.12495V10.7812C6.3437 10.55 7.31245 9.84375 7.31245 8.5625C7.31245 6.7875 5.7937 6.18125 4.37495 5.8125Z" fill="white"/>
</svg>
