<svg width="13" height="13" viewBox="0 0 13 13" fill="none" xmlns="http://www.w3.org/2000/svg">
<path fill-rule="evenodd" clip-rule="evenodd" d="M3.70438 0.660597C4.48558 0.459322 5.30722 0.477928 6.07851 0.714359C6.8498 0.95079 7.54071 1.39584 8.07491 2.00034C8.60911 2.60484 8.9658 3.34525 9.10556 4.13976C9.24532 4.93428 9.16272 5.75196 8.86688 6.50247L11.7413 8.9356C11.9593 9.11982 12.1366 9.34729 12.2622 9.6036C12.3878 9.85992 12.4587 10.1395 12.4707 10.4247C12.4826 10.7098 12.4352 10.9944 12.3315 11.2603C12.2278 11.5262 12.0701 11.7677 11.8682 11.9695C11.6664 12.1713 11.4249 12.329 11.1589 12.4326C10.893 12.5363 10.6085 12.5836 10.3233 12.5716C10.0381 12.5596 9.75856 12.4885 9.50228 12.3629C9.24599 12.2373 9.01856 12.0599 8.83438 11.8418L6.40251 8.96872C5.65191 9.26504 4.83398 9.34802 4.03916 9.20848C3.24434 9.06893 2.50359 8.71231 1.89881 8.17803C1.29403 7.64376 0.84878 6.95264 0.612286 6.1811C0.375791 5.40955 0.357266 4.58764 0.558759 3.80622C0.587169 3.69643 0.644634 3.59631 0.725114 3.5164C0.805594 3.43649 0.906115 3.37974 1.01611 3.35212C1.12611 3.32449 1.24151 3.32701 1.3502 3.3594C1.45889 3.3918 1.55684 3.45288 1.63376 3.53622L3.53688 5.6031L4.97251 5.07497L5.50188 3.63747L3.43376 1.73747C3.34992 1.66058 3.28842 1.56246 3.25575 1.45348C3.22309 1.34451 3.22049 1.22873 3.24822 1.1184C3.27594 1.00807 3.33297 0.907282 3.41327 0.826695C3.49357 0.746109 3.59415 0.68872 3.70438 0.660597Z" fill="white"/>
</svg>
