<svg width="15" height="15" viewBox="0 0 15 15" fill="none" xmlns="http://www.w3.org/2000/svg">
<path d="M9.15187 9.81C8.94984 9.18153 8.60303 8.60929 8.13937 8.13937C7.3575 7.35 6.25813 6.875 5 6.875C2.5 6.875 0.625 8.75 0.625 11.25V14.375H6.875M7.5 11.765L10.1188 13.75L14.375 8.125M5 6.875C5.8288 6.875 6.62366 6.54576 7.20971 5.95971C7.79576 5.37366 8.125 4.5788 8.125 3.75C8.125 2.9212 7.79576 2.12634 7.20971 1.54029C6.62366 0.95424 5.8288 0.625 5 0.625C4.1712 0.625 3.37634 0.95424 2.79029 1.54029C2.20424 2.12634 1.875 2.9212 1.875 3.75C1.875 4.5788 2.20424 5.37366 2.79029 5.95971C3.37634 6.54576 4.1712 6.875 5 6.875V6.875Z" stroke="white" stroke-width="1.25"/>
</svg>
