<svg width="15" height="11" viewBox="0 0 15 11" fill="none" xmlns="http://www.w3.org/2000/svg">
<path fill-rule="evenodd" clip-rule="evenodd" d="M14.583 5.02076C13.9215 1.32626 12.4425 0.236511 11.6558 0.236511C10.428 0.236511 10.113 1.14926 7.50003 1.18001C4.88703 1.14926 4.57203 0.236511 3.34428 0.236511C2.55753 0.236511 1.07778 1.32626 0.416276 5.02076C0.0390258 7.12976 -0.370474 10.2783 0.605276 10.6563C1.81953 11.1265 2.23128 9.95051 3.56478 8.95676C4.91853 7.94951 5.56803 7.71251 7.50003 7.71251C9.43203 7.71251 10.0815 7.94951 11.4353 8.95676C12.7688 9.94976 13.1805 11.1265 14.3948 10.6563C15.3705 10.2783 14.961 7.13051 14.583 5.02076ZM4.50003 5.50001C4.1022 5.50001 3.72067 5.34198 3.43937 5.06067C3.15806 4.77937 3.00003 4.39784 3.00003 4.00001C3.00003 3.60219 3.15806 3.22066 3.43937 2.93935C3.72067 2.65805 4.1022 2.50001 4.50003 2.50001C4.89785 2.50001 5.27938 2.65805 5.56069 2.93935C5.84199 3.22066 6.00003 3.60219 6.00003 4.00001C6.00003 4.39784 5.84199 4.77937 5.56069 5.06067C5.27938 5.34198 4.89785 5.50001 4.50003 5.50001ZM9.75003 5.50001C9.55111 5.50001 9.36035 5.42099 9.2197 5.28034C9.07904 5.13969 9.00003 4.94892 9.00003 4.75001C9.00003 4.5511 9.07904 4.36033 9.2197 4.21968C9.36035 4.07903 9.55111 4.00001 9.75003 4.00001C9.94894 4.00001 10.1397 4.07903 10.2804 4.21968C10.421 4.36033 10.5 4.5511 10.5 4.75001C10.5 4.94892 10.421 5.13969 10.2804 5.28034C10.1397 5.42099 9.94894 5.50001 9.75003 5.50001ZM11.25 4.00001C11.0511 4.00001 10.8603 3.92099 10.7197 3.78034C10.579 3.63969 10.5 3.44892 10.5 3.25001C10.5 3.0511 10.579 2.86033 10.7197 2.71968C10.8603 2.57903 11.0511 2.50001 11.25 2.50001C11.4489 2.50001 11.6397 2.57903 11.7804 2.71968C11.921 2.86033 12 3.0511 12 3.25001C12 3.44892 11.921 3.63969 11.7804 3.78034C11.6397 3.92099 11.4489 4.00001 11.25 4.00001Z" fill="white"/>
</svg>
