<svg width="13" height="13" viewBox="0 0 13 13" fill="none" xmlns="http://www.w3.org/2000/svg">
<path d="M12.2627 0.319214C12.2276 0.319214 12.1953 0.322144 12.1573 0.327124C11.8701 0.36814 11.3955 0.608374 10.9004 1.08591C8.81741 3.10154 7.56936 4.53123 7.02151 5.19626C7.61917 5.26072 8.13186 5.34568 8.51565 5.44822C8.67092 5.10251 8.90823 4.75095 9.20413 4.38474C9.92483 3.49119 10.9883 2.53904 12.0869 1.499C12.4356 1.16501 12.5908 0.904272 12.626 0.74021C12.6524 0.611304 12.6201 0.511694 12.5645 0.444312C12.5059 0.370483 12.4033 0.3198 12.2627 0.319214ZM12.0283 0.571167C12.0869 0.568237 12.1367 0.584937 12.1631 0.620093C12.2393 0.716772 12.1426 0.915991 11.9492 1.06833C11.7559 1.21775 11.5391 1.26462 11.4629 1.16794C11.3897 1.07419 11.4864 0.872046 11.6797 0.722632C11.7998 0.627417 11.9317 0.57439 12.0283 0.571167ZM4.7803 5.50974C3.1221 5.50974 1.67952 5.67673 0.964087 5.91404C0.752857 5.98142 0.599048 6.06345 0.507935 6.14255C0.407153 6.23044 0.365845 6.32712 0.365845 6.42087C0.365845 6.51462 0.407153 6.6113 0.507935 6.69919C0.520532 6.71091 0.534009 6.7197 0.54895 6.73142V11.3662C0.54895 11.8056 0.852173 12.1865 1.27991 12.2744C3.61721 12.8017 5.95217 12.831 8.28713 12.2744C8.71194 12.1865 9.0137 11.8056 9.0137 11.3662V7.27048C7.65139 7.72165 5.57717 7.67478 5.2842 7.32615C6.72854 7.29685 7.95608 7.14158 8.59768 6.92771C8.80862 6.8574 8.96389 6.7783 9.05471 6.69919C9.15432 6.6113 9.19534 6.51462 9.19534 6.42087C9.19534 6.32712 9.15432 6.23044 9.05471 6.14255C8.96389 6.06345 8.80862 5.98142 8.59768 5.91404C7.88284 5.67673 6.44143 5.50974 4.7803 5.50974ZM4.7803 5.87595C6.39163 5.87595 7.78909 6.03123 8.48342 6.25974C8.61233 6.30369 8.7178 6.34763 8.78518 6.39744C8.79397 6.4033 8.80569 6.41208 8.81448 6.42087C8.80569 6.42966 8.79397 6.43845 8.78518 6.44431C8.7178 6.49412 8.61233 6.53806 8.48342 6.58201C7.78909 6.81052 6.39163 6.96287 4.7803 6.96287C3.1719 6.96287 1.77297 6.81052 1.07922 6.58201C0.948853 6.53806 0.846021 6.49412 0.776587 6.44431C0.767212 6.43845 0.756372 6.42966 0.747583 6.42087C0.756372 6.41208 0.767212 6.4033 0.776587 6.39744C0.846021 6.34763 0.948853 6.30369 1.07922 6.25974C1.77297 6.03123 3.1719 5.87595 4.7803 5.87595Z" fill="white"/>
</svg>
