<svg width="8" height="8" viewBox="0 0 8 8" fill="none" xmlns="http://www.w3.org/2000/svg">
<path d="M3.70588 0.176758C2.97293 0.176758 2.25644 0.394104 1.64701 0.801312C1.03758 1.20852 0.562585 1.7873 0.282095 2.46446C0.00160571 3.14162 -0.0717831 3.88675 0.0712092 4.60562C0.214201 5.32449 0.567152 5.98482 1.08543 6.5031C1.60371 7.02137 2.26403 7.37432 2.9829 7.51732C3.70177 7.66031 4.4469 7.58692 5.12406 7.30643C5.80123 7.02594 6.38 6.55095 6.78721 5.94152C7.19442 5.33209 7.41177 4.61559 7.41177 3.88264C7.41177 2.89978 7.02133 1.95717 6.32634 1.26219C5.63135 0.567198 4.68875 0.176758 3.70588 0.176758ZM3.70588 6.35323C3.21725 6.35323 2.73959 6.20833 2.3333 5.93686C1.92701 5.66539 1.61035 5.27953 1.42336 4.82809C1.23636 4.37665 1.18744 3.8799 1.28277 3.40065C1.3781 2.92141 1.6134 2.48119 1.95891 2.13567C2.30443 1.79015 2.74465 1.55485 3.2239 1.45952C3.70314 1.3642 4.1999 1.41312 4.65134 1.60011C5.10278 1.78711 5.48863 2.10377 5.7601 2.51006C6.03157 2.91634 6.17647 3.394 6.17647 3.88264C6.17647 4.53788 5.91618 5.16628 5.45285 5.62961C4.98953 6.09293 4.36112 6.35323 3.70588 6.35323Z" fill="#FFC700"/>
</svg>
