<svg width="16" height="15" viewBox="0 0 16 15" fill="none" xmlns="http://www.w3.org/2000/svg">
<path d="M6.46978 0H1.52861C1.31019 0 1.10073 0.0867644 0.946284 0.241206C0.791843 0.395648 0.705078 0.605116 0.705078 0.823529V5.76471C0.705078 5.98312 0.791843 6.19259 0.946284 6.34703C1.10073 6.50147 1.31019 6.58824 1.52861 6.58824H6.46978C6.6882 6.58824 6.89767 6.50147 7.05211 6.34703C7.20655 6.19259 7.29331 5.98312 7.29331 5.76471V0.823529C7.29331 0.605116 7.20655 0.395648 7.05211 0.241206C6.89767 0.0867644 6.6882 0 6.46978 0ZM5.64625 4.94118H2.35214V1.64706H5.64625V4.94118ZM14.7051 8.23529H9.7639C9.54549 8.23529 9.33602 8.32206 9.18158 8.4765C9.02714 8.63094 8.94037 8.84041 8.94037 9.05882V14C8.94037 14.2184 9.02714 14.4279 9.18158 14.5823C9.33602 14.7368 9.54549 14.8235 9.7639 14.8235H14.7051C14.9235 14.8235 15.133 14.7368 15.2874 14.5823C15.4418 14.4279 15.5286 14.2184 15.5286 14V9.05882C15.5286 8.84041 15.4418 8.63094 15.2874 8.4765C15.133 8.32206 14.9235 8.23529 14.7051 8.23529ZM13.8815 13.1765H10.5874V9.88235H13.8815V13.1765ZM12.2345 0C10.4178 0 8.94037 1.47741 8.94037 3.29412C8.94037 5.11082 10.4178 6.58824 12.2345 6.58824C14.0512 6.58824 15.5286 5.11082 15.5286 3.29412C15.5286 1.47741 14.0512 0 12.2345 0ZM12.2345 4.94118C11.3261 4.94118 10.5874 4.20247 10.5874 3.29412C10.5874 2.38576 11.3261 1.64706 12.2345 1.64706C13.1428 1.64706 13.8815 2.38576 13.8815 3.29412C13.8815 4.20247 13.1428 4.94118 12.2345 4.94118ZM3.9992 8.23529C2.18249 8.23529 0.705078 9.71271 0.705078 11.5294C0.705078 13.3461 2.18249 14.8235 3.9992 14.8235C5.8159 14.8235 7.29331 13.3461 7.29331 11.5294C7.29331 9.71271 5.8159 8.23529 3.9992 8.23529ZM3.9992 13.1765C3.09084 13.1765 2.35214 12.4378 2.35214 11.5294C2.35214 10.6211 3.09084 9.88235 3.9992 9.88235C4.90755 9.88235 5.64625 10.6211 5.64625 11.5294C5.64625 12.4378 4.90755 13.1765 3.9992 13.1765Z" fill="#FFC700"/>
</svg>
